<svg width="17" height="20" viewBox="0 0 17 20" fill="none" xmlns="http://www.w3.org/2000/svg">
<path id="Vector" d="M13.8311 18.6562C12.7972 19.6495 11.6685 19.4927 10.5819 19.0222C9.43206 18.5412 8.37714 18.5203 7.16399 19.0222C5.64491 19.6704 4.84317 19.4822 3.93595 18.6562C-1.21205 13.3967 -0.452507 5.38728 5.39173 5.09451C6.81587 5.1677 7.80749 5.86827 8.64087 5.93101C9.88567 5.68006 11.0777 4.95858 12.4069 5.05269C13.9998 5.17816 15.2025 5.80553 15.9936 6.9348C12.7023 8.89011 13.4829 13.1876 16.5 14.3901C15.8987 15.9585 15.1181 17.5165 13.8205 18.6667L13.8311 18.6562ZM8.53538 5.03177C8.37714 2.70004 10.2865 0.776102 12.4808 0.587891C12.7867 3.28559 10.0123 5.29318 8.53538 5.03177Z" fill="black"/>
</svg>
