<svg width="14" height="14" viewBox="0 0 14 14" fill="none" xmlns="http://www.w3.org/2000/svg">
<g id="Convert PDF 2" clip-path="url(#clip0_979_1262)">
<g id="convert-PDF-2--essential-files-folder-convert-to-PDF">
<path id="Subtract" fill-rule="evenodd" clip-rule="evenodd" d="M1.44 0.440001C1.72103 0.158616 2.10231 0.000350902 2.5 7.97493e-07H8.5C8.5657 -0.00011655 8.63079 0.0127175 8.69153 0.0377692C8.75227 0.0628209 8.80748 0.099599 8.854 0.146001L12.854 4.146C12.9004 4.19252 12.9372 4.24773 12.9622 4.30847C12.9873 4.36921 13.0001 4.4343 13 4.5V12.5C13 12.697 12.9612 12.892 12.8858 13.074C12.8104 13.256 12.6999 13.4214 12.5607 13.5607C12.4214 13.6999 12.256 13.8104 12.074 13.8858C11.892 13.9612 11.697 14 11.5 14H2.5C2.30302 14 2.10796 13.9612 1.92597 13.8858C1.74399 13.8104 1.57863 13.6999 1.43934 13.5607C1.30005 13.4214 1.18956 13.256 1.11418 13.074C1.0388 12.892 1 12.697 1 12.5V1.5C1 1.102 1.158 0.720001 1.44 0.440001ZM6.076 3.367C6.156 3.705 6.186 4.156 6.185 4.642C6.873 5.742 8 7.112 8.941 7.972C9.376 7.942 9.798 7.952 10.131 8.042C10.327 8.095 10.596 8.202 10.778 8.449C10.993 8.741 10.98 9.077 10.877 9.345C10.8261 9.48584 10.7422 9.6124 10.6322 9.71403C10.5222 9.81566 10.3894 9.88938 10.245 9.929C9.971 10.003 9.708 9.943 9.517 9.873C9.2 9.757 8.861 9.533 8.532 9.268C7.44107 9.42017 6.37133 9.69767 5.344 10.095C5.214 10.459 5.055 10.799 4.859 11.043C4.737 11.195 4.543 11.383 4.262 11.452C4.11888 11.4855 3.96981 11.4842 3.82731 11.4482C3.6848 11.4122 3.55301 11.3425 3.443 11.245C3.238 11.073 3.064 10.805 3.09 10.46C3.112 10.157 3.28 9.93 3.418 9.787C3.641 9.556 3.969 9.354 4.323 9.18C4.654 7.998 4.891 6.276 4.929 4.98C4.707 4.595 4.524 4.22 4.429 3.892C4.3648 3.69031 4.34268 3.47759 4.364 3.267C4.37976 3.12239 4.43149 2.98404 4.51446 2.86456C4.59743 2.74508 4.709 2.64828 4.839 2.583C4.99733 2.50291 5.17774 2.47759 5.352 2.511C5.52147 2.54527 5.6752 2.63372 5.79 2.763C5.96 2.949 6.035 3.193 6.076 3.367ZM6.058 6.634C6.476 7.176 6.935 7.716 7.39 8.196C6.83364 8.31092 6.28358 8.45444 5.742 8.626C5.875 7.995 5.982 7.306 6.058 6.634Z" fill="#121212"/>
</g>
</g>
<defs>
<clipPath id="clip0_979_1262">
<rect width="14" height="14" fill="white"/>
</clipPath>
</defs>
</svg>
