<svg width="47" height="47" viewBox="0 0 47 47" fill="none" xmlns="http://www.w3.org/2000/svg">
<rect x="0.95813" y="0.355835" width="45.9574" height="46.2883" rx="22.9787" fill="#4560ED"/>
<path d="M26.5326 12.2625H21.3406C20.3848 12.2625 19.61 13.0364 19.61 13.9912V14.8556C19.61 15.8103 20.3848 16.5843 21.3406 16.5843H26.5326C27.4884 16.5843 28.2633 15.8103 28.2633 14.8556V13.9912C28.2633 13.0364 27.4884 12.2625 26.5326 12.2625Z" stroke="white" stroke-width="1.81577" stroke-linecap="round" stroke-linejoin="round"/>
<path d="M28.6956 13.9939H31.2914C31.7503 13.9939 32.1906 14.176 32.515 14.5002C32.8395 14.8244 33.0219 15.264 33.0219 15.7225V33.0085C33.0219 33.4669 32.8395 33.9066 32.515 34.2307C32.1906 34.5549 31.7503 34.737 31.2914 34.737H16.5819C16.123 34.737 15.6828 34.5549 15.3583 34.2307C15.0337 33.9066 14.8514 33.4669 14.8514 33.0085V15.7225C14.8514 15.264 15.0337 14.8244 15.3583 14.5002C15.6828 14.176 16.123 13.9939 16.5819 13.9939H19.1777" stroke="white" stroke-width="1.81577" stroke-linecap="round" stroke-linejoin="round"/>
<path d="M19.0143 21.8412H28.8631" stroke="white" stroke-width="1.85246" stroke-linecap="round" stroke-linejoin="round"/>
<path d="M19.0138 28.5414H28.8626" stroke="white" stroke-width="1.85246" stroke-linecap="round" stroke-linejoin="round"/>
</svg>
