<svg width="12" height="12" viewBox="0 0 12 12" fill="none" xmlns="http://www.w3.org/2000/svg">
<g id="Image 2" clip-path="url(#clip0_979_1435)">
<g id="Iconly/Light/Image-2">
<g id="Image-2">
<path id="Stroke-1" fill-rule="evenodd" clip-rule="evenodd" d="M8.15138 1.37488H3.82538C2.31938 1.37488 1.37488 2.44188 1.37488 3.95188V8.02488C1.37488 9.53488 2.31538 10.6019 3.82538 10.6019H8.14888C9.66138 10.6019 10.6014 9.53488 10.6014 8.02488V3.95188C10.6034 2.44188 9.66288 1.37488 8.15138 1.37488Z" stroke="black" stroke-linecap="round" stroke-linejoin="round"/>
<path id="Stroke-3" fill-rule="evenodd" clip-rule="evenodd" d="M5.35155 4.39248C5.35155 4.90248 4.93855 5.31548 4.42855 5.31548C3.91905 5.31548 3.50555 4.90248 3.50555 4.39248C3.50555 3.88248 3.91905 3.46948 4.42855 3.46948C4.93805 3.46998 5.35105 3.88298 5.35155 4.39248Z" stroke="black" stroke-linecap="round" stroke-linejoin="round"/>
<path id="Stroke-5" d="M10.6035 7.47545C10.142 7.00045 9.2545 6.04095 8.2895 6.04095C7.324 6.04095 6.7675 8.15745 5.839 8.15745C4.9105 8.15745 4.067 7.20045 3.323 7.81395C2.579 8.42695 1.875 9.68045 1.875 9.68045" stroke="black" stroke-linecap="round" stroke-linejoin="round"/>
</g>
</g>
</g>
<defs>
<clipPath id="clip0_979_1435">
<rect width="12" height="12" fill="white"/>
</clipPath>
</defs>
</svg>
