<svg width="14" height="14" viewBox="0 0 14 14" fill="none" xmlns="http://www.w3.org/2000/svg">
<g id="Link Chain" clip-path="url(#clip0_979_1265)">
<g id="link-chain--create-hyperlink-link-make-unlink-connection-chain">
<path id="Union" fill-rule="evenodd" clip-rule="evenodd" d="M7.67099 2.74301L6.70699 3.70701C6.51838 3.88917 6.26578 3.98996 6.00359 3.98768C5.74139 3.98541 5.49058 3.88024 5.30517 3.69483C5.11976 3.50942 5.01459 3.25861 5.01231 2.99641C5.01003 2.73421 5.11083 2.48161 5.29299 2.29301L6.25699 1.32801C7.10767 0.477328 8.26144 -0.000579834 9.46449 -0.000579834C10.6675 -0.000579834 11.8213 0.477328 12.672 1.32801C13.5227 2.17869 14.0006 3.33246 14.0006 4.53551C14.0006 5.73856 13.5227 6.89233 12.672 7.74301L11.707 8.70701C11.6147 8.80252 11.5044 8.8787 11.3824 8.93111C11.2604 8.98352 11.1292 9.01111 10.9964 9.01226C10.8636 9.01341 10.7319 8.98811 10.609 8.93783C10.4861 8.88755 10.3745 8.8133 10.2806 8.71941C10.1867 8.62551 10.1124 8.51386 10.0622 8.39096C10.0119 8.26807 9.98658 8.13639 9.98774 8.00361C9.98889 7.87083 10.0165 7.73961 10.0689 7.61761C10.1213 7.4956 10.1975 7.38526 10.293 7.29301L11.257 6.32801C11.7103 5.84817 11.9587 5.21047 11.9493 4.55042C11.94 3.89036 11.6736 3.25997 11.2068 2.7932C10.74 2.32642 10.1096 2.06005 9.44958 2.05067C8.78952 2.0413 8.15183 2.28967 7.67199 2.74301H7.67099ZM3.70699 5.29301C3.89446 5.48054 3.99977 5.73485 3.99977 6.00001C3.99977 6.26517 3.89446 6.51948 3.70699 6.70701L2.74299 7.67201C2.28965 8.15185 2.04128 8.78955 2.05065 9.4496C2.06002 10.1097 2.3264 10.74 2.79317 11.2068C3.25995 11.6736 3.89034 11.94 4.55039 11.9493C5.21045 11.9587 5.84815 11.7103 6.32799 11.257L7.29299 10.293C7.48159 10.1109 7.73419 10.0101 7.99639 10.0123C8.25859 10.0146 8.5094 10.1198 8.69481 10.3052C8.88021 10.4906 8.98538 10.7414 8.98766 11.0036C8.98994 11.2658 8.88915 11.5184 8.70699 11.707L7.74299 12.671C6.88932 13.5066 5.7405 13.9717 4.54596 13.9654C3.35143 13.959 2.20761 13.4817 1.36287 12.6371C0.518129 11.7925 0.040657 10.6488 0.0341255 9.45423C0.027594 8.2597 0.492531 7.11081 1.32799 6.25701L2.29299 5.29301C2.48051 5.10554 2.73482 5.00022 2.99999 5.00022C3.26515 5.00022 3.51946 5.10554 3.70699 5.29301ZM9.20699 6.20701C9.38914 6.01841 9.48994 5.76581 9.48766 5.50361C9.48538 5.24141 9.38021 4.9906 9.19481 4.80519C9.0094 4.61978 8.75858 4.51461 8.49639 4.51234C8.23419 4.51006 7.98159 4.61085 7.79299 4.79301L4.79299 7.79301C4.61083 7.98161 4.51003 8.23421 4.51231 8.49641C4.51459 8.75861 4.61976 9.00942 4.80517 9.19483C4.99058 9.38024 5.24139 9.4854 5.50359 9.48768C5.76578 9.48996 6.01838 9.38917 6.20699 9.20701L9.20699 6.20701Z" fill="black"/>
</g>
</g>
<defs>
<clipPath id="clip0_979_1265">
<rect width="14" height="14" fill="white"/>
</clipPath>
</defs>
</svg>
