<?xml version="1.0" encoding="UTF-8"?>
<!DOCTYPE svg PUBLIC "-//W3C//DTD SVG 1.1//EN" "http://www.w3.org/Graphics/SVG/1.1/DTD/svg11.dtd">
<svg xmlns="http://www.w3.org/2000/svg" version="1.1" width="108px" height="181px" style="shape-rendering:geometricPrecision; text-rendering:geometricPrecision; image-rendering:optimizeQuality; fill-rule:evenodd; clip-rule:evenodd" xmlns:xlink="http://www.w3.org/1999/xlink">
<g><path style="opacity:0.994" fill="#4460ed" d="M 46.5,-0.5 C 52.1667,-0.5 57.8333,-0.5 63.5,-0.5C 87.5859,5.25293 102.253,20.2529 107.5,44.5C 107.5,48.8333 107.5,53.1667 107.5,57.5C 105.794,65.9372 102.627,73.9372 98,81.5C 90.2712,92.9002 82.9379,104.567 76,116.5C 75.4387,117.022 74.772,117.355 74,117.5C 67.1651,111.004 61.6651,103.504 57.5,95C 62.8119,84.3459 68.9785,74.1792 76,64.5C 82.7936,50.5599 79.9603,39.0599 67.5,30C 47.1179,23.1937 34.7845,30.3603 30.5,51.5C 31.9076,55.2389 31.7409,58.9056 30,62.5C 25.75,68.6645 21.75,74.9979 18,81.5C 16.7592,83.4206 15.2592,83.754 13.5,82.5C 0.343934,61.9884 0.177267,41.3218 13,20.5C 21.5727,9.30025 32.7394,2.30025 46.5,-0.5 Z"/></g>
<g><path style="opacity:0.99" fill="#fbb406" d="M 60.5,180.5 C 54.8333,180.5 49.1667,180.5 43.5,180.5C 19.4141,174.747 4.74742,159.747 -0.5,135.5C -0.5,131.167 -0.5,126.833 -0.5,122.5C 1.20602,114.063 4.37269,106.063 9,98.5C 16.7288,87.0998 24.0621,75.4331 31,63.5C 31.5613,62.9781 32.228,62.6448 33,62.5C 39.8349,68.9955 45.3349,76.4955 49.5,85C 44.1881,95.6541 38.0215,105.821 31,115.5C 24.2064,129.44 27.0397,140.94 39.5,150C 59.8821,156.806 72.2155,149.64 76.5,128.5C 75.0924,124.761 75.2591,121.094 77,117.5C 81.25,111.335 85.25,105.002 89,98.5C 90.2408,96.5794 91.7408,96.246 93.5,97.5C 106.656,118.012 106.823,138.678 94,159.5C 85.4273,170.7 74.2606,177.7 60.5,180.5 Z"/></g>
</svg>
