<svg width="19" height="19" viewBox="0 0 19 19" fill="none" xmlns="http://www.w3.org/2000/svg">
<path d="M9.5 4.75C9.91421 4.75 10.25 4.41421 10.25 4C10.25 3.58579 9.91421 3.25 9.5 3.25C9.08579 3.25 8.75 3.58579 8.75 4C8.75 4.41421 9.08579 4.75 9.5 4.75Z" stroke="black" stroke-width="0.884279" stroke-linecap="round" stroke-linejoin="round"/>
<path d="M9.5 10.25C9.91421 10.25 10.25 9.91421 10.25 9.5C10.25 9.08579 9.91421 8.75 9.5 8.75C9.08579 8.75 8.75 9.08579 8.75 9.5C8.75 9.91421 9.08579 10.25 9.5 10.25Z" stroke="black" stroke-width="0.884279" stroke-linecap="round" stroke-linejoin="round"/>
<path d="M9.5 15.75C9.91421 15.75 10.25 15.4142 10.25 15C10.25 14.5858 9.91421 14.25 9.5 14.25C9.08579 14.25 8.75 14.5858 8.75 15C8.75 15.4142 9.08579 15.75 9.5 15.75Z" stroke="black" stroke-width="0.884279" stroke-linecap="round" stroke-linejoin="round"/>
</svg>
