<svg width="38" height="30" viewBox="0 0 38 30" fill="none" xmlns="http://www.w3.org/2000/svg">
<g clip-path="url(#clip0_884_953)">
<path fill-rule="evenodd" clip-rule="evenodd" d="M13.1306 15.8837C12.8337 15.6493 12.667 15.3314 12.667 14.9999C12.667 14.6685 12.8337 14.3506 13.1306 14.1162L22.0875 7.04494C22.2335 6.92555 22.4083 6.83032 22.6014 6.76481C22.7946 6.6993 23.0024 6.66482 23.2126 6.66338C23.4228 6.66194 23.6313 6.69356 23.8259 6.75641C24.0205 6.81926 24.1973 6.91208 24.3459 7.02945C24.4946 7.14681 24.6122 7.28638 24.6918 7.44C24.7714 7.59362 24.8115 7.75822 24.8096 7.92419C24.8078 8.09017 24.7641 8.25419 24.6811 8.4067C24.5982 8.5592 24.4775 8.69713 24.3263 8.81244L16.4888 14.9999L24.3263 21.1874C24.6147 21.4232 24.7743 21.7389 24.7707 22.0667C24.7671 22.3944 24.6006 22.708 24.307 22.9397C24.0135 23.1715 23.6164 23.3029 23.2012 23.3058C22.7861 23.3086 22.3861 23.1826 22.0875 22.9549L13.1306 15.8837Z" fill="black"/>
</g>
<defs>
<clipPath id="clip0_884_953">
<rect width="38" height="30" fill="white"/>
</clipPath>
</defs>
</svg>
