<svg width="14" height="13" viewBox="0 0 14 13" fill="none" xmlns="http://www.w3.org/2000/svg">
<path d="M7.1994 12.1512C5.87185 12.1512 4.70605 11.917 3.70202 11.4484C2.69799 10.9687 1.91707 10.2882 1.35928 9.40689C0.812638 8.52557 0.539318 7.48807 0.539318 6.29439C0.539318 5.10071 0.812638 4.0409 1.35928 3.11496C1.91707 2.18901 2.6701 1.47504 3.61835 0.97302C4.57776 0.459848 5.64873 0.203261 6.83125 0.203261C8.00262 0.203261 9.06244 0.459848 10.0107 0.97302C10.9701 1.47504 11.7231 2.18901 12.2698 3.11496C12.8164 4.0409 13.0897 5.10071 13.0897 6.29439C13.0897 6.96375 12.928 7.62752 12.6044 8.28572C12.2921 8.93276 11.9016 9.45151 11.4331 9.84197H13.3909V12.1512H7.1994ZM6.83125 9.62443C7.42252 9.62443 7.96358 9.49056 8.45444 9.22282C8.9453 8.95508 9.33576 8.5702 9.62581 8.06818C9.91586 7.56616 10.0609 6.98048 10.0609 6.31112C10.0609 5.64177 9.91586 5.06166 9.62581 4.5708C9.34691 4.06879 8.96203 3.68391 8.47117 3.41616C7.98031 3.13727 7.43367 2.99782 6.83125 2.99782C6.21768 2.99782 5.66546 3.13727 5.1746 3.41616C4.68374 3.68391 4.29328 4.06879 4.00323 4.5708C3.72433 5.06166 3.58488 5.64177 3.58488 6.31112C3.58488 6.98048 3.72433 7.56616 4.00323 8.06818C4.29328 8.5702 4.68374 8.95508 5.1746 9.22282C5.67662 9.49056 6.22883 9.62443 6.83125 9.62443Z" fill="white"/>
</svg>
