<svg width="16" height="16" viewBox="0 0 16 16" fill="none" xmlns="http://www.w3.org/2000/svg">
<g id="solar:eye-linear" clip-path="url(#clip0_978_472)">
<g id="Group">
<path id="Vector" d="M2.05635 10.0611C1.52505 9.37105 1.2594 9.02539 1.2594 8.00092C1.2594 6.97583 1.52505 6.63142 2.05635 5.94073C3.11707 4.5631 4.89599 3.00046 7.50998 3.00046C10.124 3.00046 11.9029 4.5631 12.9636 5.94073C13.4949 6.63204 13.7606 6.97645 13.7606 8.00092C13.7606 9.02602 13.4949 9.37042 12.9636 10.0611C11.9029 11.4387 10.124 13.0014 7.50998 13.0014C4.89599 13.0014 3.11707 11.4387 2.05635 10.0611Z" stroke="black" stroke-width="1.00009"/>
<path id="Vector_2" d="M9.38514 8.00094C9.38514 8.49826 9.18758 8.97522 8.83592 9.32688C8.48425 9.67855 8.0073 9.87611 7.50997 9.87611C7.01264 9.87611 6.53568 9.67855 6.18402 9.32688C5.83236 8.97522 5.6348 8.49826 5.6348 8.00094C5.6348 7.50361 5.83236 7.02665 6.18402 6.67499C6.53568 6.32333 7.01264 6.12576 7.50997 6.12576C8.0073 6.12576 8.48425 6.32333 8.83592 6.67499C9.18758 7.02665 9.38514 7.50361 9.38514 8.00094Z" stroke="black" stroke-width="1.00009"/>
</g>
</g>
<defs>
<clipPath id="clip0_978_472">
<rect width="15.0014" height="15.0014" fill="white" transform="translate(0.00927734 0.500244)"/>
</clipPath>
</defs>
</svg>
